# xmcd
#
# Track frame offsets: 
#        150
#        16231
#        31862
#        44787
#        66460
#        94741
#        111129
#        134725
#        144899
#        162699
#
# Disc length: 2460 seconds
#
# Revision: 1
# Processed by: cddbd v1.5.1PL0 Copyright (c) Steve Scherf et al.
# Submitted via: ExactAudioCopy v0.95a5
#
DISCID=91099a0a
DTITLE=Spencer P Jones - The Lost Anxiety Tapes
DYEAR=2001
DGENRE=
TTITLE0=My Week is Better
TTITLE1=Sailor's Grave
TTITLE2=I Guess its Gonna Really Hurt
TTITLE3=The Money's The Thing
TTITLE4=A light so Dim
TTITLE5=Lovers never profit
TTITLE6=The Spy Who Drugged Me
TTITLE7=The Notion
TTITLE8=Golddigger
TTITLE9=Dutch Plates
EXTD=
EXTT0=
EXTT1=
EXTT2=
EXTT3=
EXTT4=
EXTT5=
EXTT6=
EXTT7=
EXTT8=
EXTT9=
PLAYORDER=
